<svg width="41" height="40" viewBox="0 0 41 40" fill="none" xmlns="http://www.w3.org/2000/svg">
<path d="M40.5978 20.0856C40.54 31.1268 31.4026 40.0568 20.2123 39.9997C8.99304 39.9712 -0.0575556 30.9556 0.000275609 19.9144C0.0581069 8.87319 9.19545 -0.0567886 20.3858 0.000271937C31.6051 0.0573325 40.6556 9.04437 40.5978 20.0856Z" fill="#221F1F"/>
<path d="M10.6713 15.378C11.3652 15.5207 12.1171 14.6933 12.3773 13.5236C12.6375 12.3538 12.2905 11.2697 11.5966 11.127C11.1339 11.0129 10.6424 11.3838 10.2665 11.9829C10.5845 12.1541 10.7291 12.525 10.5845 12.8674C10.4399 13.1527 10.1219 13.3239 9.8327 13.2668C9.68812 14.2939 10.0351 15.2354 10.6713 15.378ZM7.34596 12.9244C7.89535 10.0143 9.60138 7.90309 11.1339 8.18839C12.6954 8.47369 13.4761 11.07 12.9267 13.9801C12.4062 16.8901 10.7002 19.0014 9.16764 18.7161C7.6062 18.4308 6.79656 15.8345 7.34596 12.9244ZM34.2086 15.378C16.8881 26.7902 4.94596 20.9985 4.94596 20.9985C4.77247 24.9642 11.6544 37.1752 19.9243 37.3464C28.1363 37.489 34.2086 15.378 34.2086 15.378ZM9.05198 19.1726C10.8737 19.5149 12.8399 17.2325 13.4472 14.0656C14.0544 10.8988 13.0713 8.04574 11.2785 7.70337C9.4568 7.36101 7.49053 9.64343 6.88331 12.8103C6.24716 16.0057 7.23029 18.8587 9.05198 19.1726ZM15.2689 17.5463C15.8761 16.8901 16.5701 16.2339 17.3508 15.6348C20.9363 12.9244 24.8399 12.2397 26.1122 14.1227C26.6038 14.8645 26.6327 15.8631 26.2568 16.9757C27.5291 14.893 27.9339 12.9815 27.1532 11.9259C25.8231 10.157 21.746 11.3838 17.9869 14.6363C16.917 15.5492 16.0207 16.5763 15.2689 17.5463ZM19.2592 8.90165C22.1219 6.99012 27.0664 5.9345 29.6978 9.92874C28.0785 0.741982 21.2255 6.02009 19.2592 8.90165ZM40.0785 20.0855C40.0206 30.8415 31.1435 39.5147 20.2134 39.4576C9.31222 39.4005 0.550781 30.6417 0.550781 19.8858C0.550781 12.9244 4.07849 7.90309 7.4327 5.22124C11.5387 1.94026 14.3436 4.45092 15.3267 6.36245C15.211 5.5636 14.864 3.22412 13.9677 1.54083C15.9917 0.856103 18.1604 0.485209 20.4158 0.513739C31.317 0.59933 40.1074 9.3296 40.0785 20.0855ZM27.6158 29.9285C25.4761 33.723 22.8158 36.8328 19.8375 36.7758C17.9869 36.7472 16.2231 36.034 14.6038 34.9498C15.1243 34.0368 18.3628 29.3864 27.6158 29.9285Z" fill="#00A046"/>
</svg>
